<svg width="24" height="24" viewBox="0 0 24 24" fill="none" xmlns="http://www.w3.org/2000/svg">
<path d="M10.9393 4.06066H3.93933C3.4089 4.06066 2.90019 4.27137 2.52512 4.64645C2.15004 5.02152 1.93933 5.53023 1.93933 6.06066V20.0607C1.93933 20.5911 2.15004 21.0998 2.52512 21.4749C2.90019 21.8499 3.4089 22.0607 3.93933 22.0607H17.9393C18.4698 22.0607 18.9785 21.8499 19.3535 21.4749C19.7286 21.0998 19.9393 20.5911 19.9393 20.0607V13.0607M18.4393 2.56066C18.8372 2.16283 19.3767 1.93934 19.9393 1.93934C20.5019 1.93934 21.0415 2.16283 21.4393 2.56066C21.8372 2.95848 22.0607 3.49805 22.0607 4.06066C22.0607 4.62327 21.8372 5.16283 21.4393 5.56066L11.9393 15.0607L7.93933 16.0607L8.93933 12.0607L18.4393 2.56066Z" stroke="#9B9A97" stroke-width="2" stroke-linecap="round" stroke-linejoin="round"/>
</svg>
